# xmcd
# 
# Track frame offsets:
#     150
#     22062
#     40437
# 
# Disc length: 838
# 
# Revision: 6
# Processed by: cddbd v1.5.2PL0 Copyright (c) Steve Scherf et al.
# Submitted via: fre:ac v1.0.31
# 
DISCID=22034403
DTITLE=Barbra Streisand, Celine Dion - Tell Him
DYEAR=1997
DGENRE=R&B
TTITLE0=Tell Him
TTITLE1=Barbra Streisand - Everything Must Change
TTITLE2=Celine Dion - Where Is The Love
EXTD=
EXTT0=
EXTT1=
EXTT2=
PLAYORDER=
